<svg width="167" height="159" viewBox="0 0 167 159" fill="none" xmlns="http://www.w3.org/2000/svg">
<ellipse cx="83.5" cy="79.5" rx="83.5" ry="79.5" fill="#E8175D"/>
<path d="M49.5784 121C48.4447 120.998 47.3465 120.55 46.4697 119.731C45.593 118.913 43.8605 117.946 43.6361 116.68L42 106.125L44.767 94.3274C40.9093 86.8764 40.8437 69.6249 46.776 59.4817C52.7084 49.3385 61.9369 42.2938 72.4314 39.8974C82.9259 37.501 93.8267 39.9491 102.736 46.7033C111.645 53.4575 122.169 73.2163 118.352 82.53L121.624 89.3601L123.905 98.4384C124.16 99.8913 123.898 101.4 123.177 102.633C122.455 103.866 121.334 104.723 120.059 105.016L50.5456 120.89C50.2272 120.963 49.9032 121 49.5784 121Z" fill="#202020"/>
<path d="M81.5104 115.355C96.3059 115.355 108.3 101.7 108.3 84.8545C108.3 68.0094 96.3059 54.3538 81.5104 54.3538C66.7149 54.3538 54.7208 68.0094 54.7208 84.8545C54.7208 101.7 66.7149 115.355 81.5104 115.355Z" fill="#C79275"/>
<path d="M108.535 86.8764L99.809 70.7326L87.8109 67.0071L77.4489 57.6934L70.3592 66.3862L59.4518 71.3535L54.5435 76.9418L53.4527 85.0137L50.1805 83.7718L49.0898 81.2882L48.3258 77.6674C48.3339 69.4364 51.2095 61.5452 56.3215 55.7249C61.4336 49.9047 68.3647 46.6309 75.5942 46.6216H79.9572C87.1867 46.6309 94.1178 49.9047 99.2299 55.7249C104.342 61.5452 107.771 67.0071 109.626 75.079L110.171 77.5627V79.4254C110.17 80.907 110.171 78.8045 110.171 81.9091C110.171 85.0137 109.836 86.8748 108.535 86.8764Z" fill="#202023"/>
<path d="M89.45 93.7065L85.0871 96.8111L79.6334 99.2947L73.089 100.537L74.1797 102.399L75.2705 103.641L76.9066 104.262L79.6334 104.883H81.8149L83.451 104.262L85.6325 103.641L87.8139 102.399L90.5408 99.9156L91.6315 98.6738L92.1769 96.1901V93.0856L91.0861 90.6019L89.45 93.7065Z" fill="white" stroke="white"/>
<path d="M71.3249 81.8343C72.3373 85.9731 70.3223 90.0833 67.0143 91.1321C63.7064 92.181 60.1154 89.8482 59.103 85.7094C58.0907 81.5706 60.1057 77.4604 63.4136 76.4115C66.7216 75.3627 70.3125 77.6955 71.3249 81.8343Z" stroke="#202020"/>
<path d="M88.6202 73.3064C89.6708 77.6014 87.5675 81.8804 84.1071 82.9776C80.6466 84.0748 76.9035 81.6495 75.8529 77.3545C74.8023 73.0595 76.9056 68.7805 80.366 67.6833C83.8265 66.5861 87.5696 69.0115 88.6202 73.3064Z" stroke="#202020"/>
<path d="M70.8987 81.3511C70.9352 79.6461 72.2138 78.6306 73.4698 77.9156C73.9851 77.6223 75.1302 77.875 75.7195 77.875" stroke="black" stroke-linecap="round" stroke-linejoin="round"/>
</svg>
