<svg width="407" height="439" viewBox="0 0 407 439" fill="none" xmlns="http://www.w3.org/2000/svg">
<ellipse cx="203.5" cy="219.5" rx="203.5" ry="219.5" fill="#E8175D"/>
<path d="M147.945 138.978C146.906 138.977 145.899 138.616 145.095 137.957C144.291 137.298 142.703 136.519 142.497 135.5L140.997 127L143.534 117.5C139.997 111.5 139.937 97.608 145.376 89.4401C150.815 81.2721 159.276 75.5993 168.897 73.6696C178.519 71.7398 188.513 73.7112 196.681 79.1501C204.848 84.589 214.497 100.5 210.997 108L213.997 113.5L216.089 120.81C216.322 121.98 216.082 123.195 215.421 124.188C214.76 125.181 213.732 125.871 212.562 126.107L148.832 138.89C148.54 138.949 148.243 138.978 147.945 138.978Z" fill="#202020"/>
<path d="M261.085 409.059L249.653 409.058L244.217 364.962L261.089 364.963L261.085 409.059Z" fill="#C79275"/>
<path d="M241.487 405.791H263.535V419.673H227.605C227.605 415.991 229.068 412.461 231.671 409.857C234.275 407.254 237.806 405.791 241.487 405.791Z" fill="#343434"/>
<path d="M141.966 408.944L131.439 404.486L143.627 361.76L159.163 368.341L141.966 408.944Z" fill="#C79275"/>
<path d="M125.194 398.293L145.496 406.892L140.082 419.675L106.997 405.662C107.708 403.983 108.743 402.461 110.042 401.183C111.341 399.904 112.88 398.893 114.569 398.209C116.259 397.525 118.067 397.18 119.89 397.195C121.713 397.209 123.515 397.582 125.194 398.293Z" fill="#343434"/>
<path d="M177.221 134.433C190.786 134.433 201.782 123.436 201.782 109.872C201.782 96.3071 190.786 85.3108 177.221 85.3108C163.656 85.3108 152.66 96.3071 152.66 109.872C152.66 123.436 163.656 134.433 177.221 134.433Z" fill="#C79275"/>
<path d="M178.383 221.604L178.131 220.785C171.439 199.031 164.521 176.545 157.594 155.16L157.406 154.583L157.832 154.15C168.585 143.211 188.729 138.848 204.69 144.004C220.754 149.189 231.824 163.735 230.441 177.838C229.705 186.311 231.981 194.772 236.869 201.731L237.51 202.661L236.508 203.185C218.563 212.419 199.206 218.602 179.231 221.48L178.383 221.604Z" fill="#ECEAEA"/>
<path d="M148.761 401.021C147.886 401.019 147.026 400.787 146.268 400.348L133.001 392.686C131.912 392.065 131.099 391.056 130.722 389.86C130.346 388.665 130.434 387.372 130.97 386.239L160.451 316.287L182.982 214.263L224.043 199.332L224.416 199.504C268.438 219.726 265.035 364.669 263.905 393.52C263.855 394.733 263.364 395.887 262.526 396.766C261.687 397.645 260.557 398.189 259.347 398.296L247 399.909C245.745 400.02 244.493 399.656 243.492 398.891C242.491 398.125 241.813 397.013 241.591 395.772L216.384 283.118C216.358 282.904 216.265 282.704 216.116 282.548C215.968 282.391 215.774 282.287 215.561 282.25C215.358 282.211 215.147 282.237 214.96 282.326C214.772 282.414 214.618 282.56 214.519 282.742L153.134 398.457C152.81 399.038 152.374 399.548 151.85 399.958C151.326 400.367 150.726 400.668 150.084 400.842C149.653 400.96 149.208 401.02 148.761 401.021Z" fill="#343434"/>
<path d="M51.4153 226.669C52.3336 225.652 53.4638 224.847 54.7265 224.314C55.9891 223.78 57.3535 223.529 58.7234 223.58C60.0934 223.63 61.4355 223.981 62.6554 224.606C63.8753 225.231 64.9433 226.117 65.7841 227.199L86.4527 221.545L92.952 233.268L63.6517 240.842C61.7392 242.134 59.4192 242.68 57.1313 242.375C54.8435 242.071 52.7468 240.938 51.2385 239.191C49.7302 237.444 48.9151 235.204 48.9477 232.897C48.9803 230.589 49.8583 228.373 51.4154 226.669L51.4153 226.669Z" fill="#C79275"/>
<path d="M79.5 239.5L78.0003 232.5C76.8114 232.116 76.5 214.5 78.0003 213C79.5006 211.5 96.7122 212.716 97.0003 211.5C112.5 199.5 125.5 185.5 145.031 163.259C146.246 160.76 147.95 158.53 150.042 156.701C152.135 154.873 154.573 153.483 157.213 152.614C159.852 151.745 162.639 151.415 165.409 151.642C168.178 151.87 170.874 152.652 173.336 153.941L174.035 154.344L173.786 155.113C161.848 191.988 141.5 207 119.5 231.5C119.16 232.586 115.445 235.366 114.5 236C113.556 236.634 104.134 239.597 103 239.5C97.9999 240.5 81.9999 243 79.5 239.5Z" fill="#4F4F4F"/>
<path d="M176.464 322.059C173.157 322.044 169.97 320.825 167.499 318.628C165.028 316.431 163.443 313.409 163.041 310.127L164.128 220.676L146.349 175.706C145.601 169.798 146.872 163.811 149.955 158.717C153.038 153.622 157.753 149.72 163.334 147.643L168.087 145.86C168.985 145.523 169.941 145.367 170.899 145.401C171.858 145.434 172.801 145.657 173.673 146.055C174.545 146.454 175.33 147.021 175.983 147.724C176.636 148.427 177.143 149.251 177.477 150.151L195.809 199.648L195.814 199.721C197.085 219.421 202.823 317.47 191.383 320.395C186.536 321.53 181.572 322.088 176.594 322.058L176.464 322.059Z" fill="#4F4F4F"/>
<path d="M303.418 43.9738C302.14 44.4694 300.986 45.2392 300.038 46.229C299.089 47.2188 298.369 48.4045 297.929 49.7026C297.488 51.0007 297.337 52.3796 297.487 53.7423C297.637 55.1049 298.084 56.4181 298.797 57.5893L286.153 74.8898L294.793 85.1373L312.305 60.4548C314.193 59.1277 315.529 57.1539 316.059 54.9077C316.589 52.6615 316.277 50.2987 315.182 48.2673C314.086 46.2358 312.284 44.6766 310.116 43.8853C307.948 43.094 305.565 43.1255 303.418 43.9738L303.418 43.9738Z" fill="#C79275"/>
<path d="M300.451 80.0069C300.581 80.6404 300.556 81.2957 300.38 81.9178C300.204 82.5399 299.881 83.1106 299.438 83.5818L299.357 83.6677C273.904 110.719 247.585 138.691 221.429 166.919L221.147 167.223L220.796 167.002C218.654 165.575 216.822 163.728 215.411 161.575C214.001 159.421 213.04 157.004 212.587 154.47C212.026 151.883 212.016 149.207 212.559 146.616C213.102 144.026 214.185 141.579 215.738 139.435C233.632 115.941 273.564 79.009 285.378 68.2494C286.109 67.5735 287.069 67.198 288.065 67.1977C289.061 67.1973 290.021 67.5721 290.753 68.2475C294.151 71.3574 297.201 74.8284 299.848 78.599C300.142 79.0228 300.347 79.5017 300.451 80.0069Z" fill="#4F4F4F"/>
<path d="M262.85 302.122C250.586 302.13 206.706 217.64 198.034 200.702L197.959 200.497L188.366 148.669C188.192 147.726 188.205 146.758 188.406 145.82C188.606 144.882 188.99 143.993 189.535 143.203C190.081 142.414 190.776 141.741 191.582 141.221C192.388 140.701 193.289 140.346 194.233 140.175L199.229 139.272C205.086 138.198 211.135 139.136 216.392 141.933C221.649 144.73 225.806 149.221 228.189 154.679L240.724 207.366L282.637 278.578C284.013 281.629 284.216 285.081 283.205 288.271C282.194 291.462 280.042 294.168 277.16 295.87C272.9 298.447 268.35 300.51 263.604 302.017C263.359 302.088 263.105 302.123 262.85 302.122H262.85Z" fill="#4E4E4E"/>
<path d="M201.997 111.5L193.997 98.5L182.997 95.5L173.497 88L166.997 95L156.997 99L152.497 103.5L151.497 110L148.497 109L147.497 107L146.797 104.084C146.804 97.4562 149.441 91.1017 154.127 86.4149C158.814 81.7281 165.169 79.0918 171.797 79.0844H175.797C182.425 79.0918 188.779 81.7281 193.466 86.4149C198.153 91.1017 201.297 95.5 202.997 102L203.497 104V105.5C203.496 106.693 203.497 105 203.497 107.5C203.497 110 203.19 111.499 201.997 111.5Z" fill="#202023"/>
<path d="M184.5 117L180.5 119.5L175.5 121.5L169.5 122.5L170.5 124L171.5 125L173 125.5L175.5 126H177.5L179 125.5L181 125L183 124L185.5 122L186.5 121L187 119V116.5L186 114.5L184.5 117Z" fill="white" stroke="white"/>
<path d="M167.838 107.452C168.741 110.696 166.955 113.987 163.905 114.836C160.856 115.686 157.626 113.792 156.722 110.548C155.819 107.304 157.605 104.013 160.655 103.164C163.704 102.314 166.934 104.208 167.838 107.452Z" stroke="#202020"/>
<path d="M183.695 100.585C184.633 103.955 182.766 107.382 179.576 108.27C176.387 109.158 173.017 107.189 172.079 103.82C171.14 100.45 173.007 97.0233 176.197 96.1351C179.386 95.2469 182.756 97.2156 183.695 100.585Z" stroke="#202020"/>
<path d="M167.492 107.051C167.525 105.678 168.698 104.86 169.849 104.284C170.321 104.048 171.371 104.252 171.912 104.252" stroke="black" stroke-linecap="round" stroke-linejoin="round"/>
</svg>
